<svg width="96" height="96" xmlns="http://www.w3.org/2000/svg" xmlns:xlink="http://www.w3.org/1999/xlink" xml:space="preserve" overflow="hidden"><g><path d="M6 24 14 24 14 72 6 72Z" stroke="#FFFFFF" fill="#FFFFFF"/><path d="M34 24 42 24 42 72 34 72Z" stroke="#FFFFFF" fill="#FFFFFF"/><path d="M18 24 22 24 22 72 18 72Z" stroke="#FFFFFF" fill="#FFFFFF"/><path d="M26 24 30 24 30 72 26 72Z" stroke="#FFFFFF" fill="#FFFFFF"/><path d="M46 24 54 24 54 72 46 72Z" stroke="#FFFFFF" fill="#FFFFFF"/><path d="M74 24 82 24 82 72 74 72Z" stroke="#FFFFFF" fill="#FFFFFF"/><path d="M58 24 62 24 62 72 58 72Z" stroke="#FFFFFF" fill="#FFFFFF"/><path d="M66 24 70 24 70 72 66 72Z" stroke="#FFFFFF" fill="#FFFFFF"/><path d="M86 24 90 24 90 72 86 72Z" stroke="#FFFFFF" fill="#FFFFFF"/></g></svg>