<svg width="96" height="96" xmlns="http://www.w3.org/2000/svg" xmlns:xlink="http://www.w3.org/1999/xlink" xml:space="preserve" overflow="hidden"><g><path d="M82 42 14 42 14 26 82 26 82 42ZM82 70 14 70 14 54 82 54 82 70ZM84 20 12 20C9.8 20 8 21.8 8 24L8 72C8 74.2 9.8 76 12 76L84 76C86.2 76 88 74.2 88 72L88 24C88 21.8 86.2 20 84 20Z" stroke="#FFFFFF" fill="#FFFFFF"/><path d="M20 60 36 60 36 64 20 64Z" stroke="#FFFFFF" fill="#FFFFFF"/><path d="M40 60 48 60 48 64 40 64Z" stroke="#FFFFFF" fill="#FFFFFF"/></g></svg>