<svg width="99" height="99" xmlns="http://www.w3.org/2000/svg" xmlns:xlink="http://www.w3.org/1999/xlink" xml:space="preserve" overflow="hidden"><g><path d="M18.5625 50.0156C15.675 50.0156 13.2344 49.0188 11.2406 47.025 9.24687 45.0313 8.25 42.5906 8.25 39.7031 8.25 36.8156 9.24687 34.375 11.2406 32.3812 13.2344 30.3875 15.675 29.3906 18.5625 29.3906 21.45 29.3906 23.8906 30.3875 25.8844 32.3812 27.8781 34.375 28.875 36.8156 28.875 39.7031 28.875 42.5906 27.8781 45.0313 25.8844 47.025 23.8906 49.0188 21.45 50.0156 18.5625 50.0156ZM37.125 33.5156C34.2375 33.5156 31.7969 32.5187 29.8031 30.525 27.8094 28.5312 26.8125 26.0906 26.8125 23.2031 26.8125 20.3156 27.8094 17.875 29.8031 15.8812 31.7969 13.8875 34.2375 12.8906 37.125 12.8906 40.0125 12.8906 42.4531 13.8875 44.4469 15.8812 46.4406 17.875 47.4375 20.3156 47.4375 23.2031 47.4375 26.0906 46.4406 28.5312 44.4469 30.525 42.4531 32.5187 40.0125 33.5156 37.125 33.5156ZM61.875 33.5156C58.9875 33.5156 56.5469 32.5187 54.5531 30.525 52.5594 28.5312 51.5625 26.0906 51.5625 23.2031 51.5625 20.3156 52.5594 17.875 54.5531 15.8812 56.5469 13.8875 58.9875 12.8906 61.875 12.8906 64.7625 12.8906 67.2031 13.8875 69.1969 15.8812 71.1906 17.875 72.1875 20.3156 72.1875 23.2031 72.1875 26.0906 71.1906 28.5312 69.1969 30.525 67.2031 32.5187 64.7625 33.5156 61.875 33.5156ZM80.4375 50.0156C77.55 50.0156 75.1094 49.0188 73.1156 47.025 71.1219 45.0313 70.125 42.5906 70.125 39.7031 70.125 36.8156 71.1219 34.375 73.1156 32.3812 75.1094 30.3875 77.55 29.3906 80.4375 29.3906 83.325 29.3906 85.7656 30.3875 87.7594 32.3812 89.7531 34.375 90.75 36.8156 90.75 39.7031 90.75 42.5906 89.7531 45.0313 87.7594 47.025 85.7656 49.0188 83.325 50.0156 80.4375 50.0156ZM27.4312 91.2656C24.3375 91.2656 21.7422 90.0797 19.6453 87.7078 17.5484 85.3359 16.5 82.5344 16.5 79.3031 16.5 75.7281 17.7203 72.6 20.1609 69.9187 22.6016 67.2375 25.025 64.5906 27.4312 61.9781 29.425 59.8469 31.1437 57.5266 32.5875 55.0172 34.0312 52.5078 35.75 50.1531 37.7437 47.9531 39.2562 46.1656 41.0094 44.6875 43.0031 43.5187 44.9969 42.35 47.1625 41.7656 49.5 41.7656 51.8375 41.7656 54.0031 42.3156 55.9969 43.4156 57.9906 44.5156 59.7437 45.9594 61.2562 47.7469 63.1813 49.9469 64.8828 52.3188 66.3609 54.8625 67.8391 57.4062 69.575 59.7781 71.5687 61.9781 73.975 64.5906 76.3984 67.2375 78.8391 69.9187 81.2797 72.6 82.5 75.7281 82.5 79.3031 82.5 82.5344 81.4516 85.3359 79.3547 87.7078 77.2578 90.0797 74.6625 91.2656 71.5687 91.2656 67.8562 91.2656 64.1781 90.9563 60.5344 90.3375 56.8906 89.7188 53.2125 89.4094 49.5 89.4094 45.7875 89.4094 42.1094 89.7188 38.4656 90.3375 34.8219 90.9563 31.1437 91.2656 27.4312 91.2656Z" fill="#5F6368"/></g></svg>